<svg xmlns="http://www.w3.org/2000/svg" width="1180" height="760" viewBox="0 0 1180 760">
  <defs>
    <style>
      text {
        font-family: "Avenir Next Rounded", "PingFang SC", sans-serif;
        fill: #2b2724;
      }
      .card {
        fill: #fff8e9;
        stroke: #2b2724;
        stroke-width: 2;
      }
      .stage-box {
        fill: #fffdf6;
        stroke: rgba(43, 39, 36, 0.22);
        stroke-width: 1;
      }
      .tree {
        fill: #161616;
        stroke: #161616;
        stroke-linecap: round;
        stroke-linejoin: round;
      }
      .ghost {
        fill: none;
        stroke: #161616;
        stroke-linecap: round;
        stroke-linejoin: round;
      }
      .label {
        font-size: 24px;
        font-weight: 800;
      }
      .hint {
        font-size: 15px;
        font-weight: 700;
        fill: rgba(43, 39, 36, 0.68);
      }
      .percent {
        font-size: 14px;
        font-weight: 800;
        fill: rgba(43, 39, 36, 0.58);
      }
    </style>
  </defs>

  <rect width="1180" height="760" rx="34" fill="#f6ead8"/>
  <text x="54" y="64" class="label">菜单栏五阶段树图标风格候选</text>
  <text x="54" y="92" class="hint">全部按 macOS 菜单栏单色 template icon 设计：小尺寸优先，之后可接入动态 tray canvas。</text>

  <g transform="translate(54 130)">
    <g>
      <rect class="card" width="1072" height="104" rx="20"/>
      <text x="24" y="38" class="label">A 圆润幼苗</text>
      <text x="24" y="66" class="hint">最贴近现在的软萌风，树冠圆，识别稳定。</text>
      <g transform="translate(360 16)">
        <g transform="translate(0 0)"><rect class="stage-box" width="94" height="72" rx="14"/><text x="33" y="88" class="percent">0%</text><g transform="translate(47 52) scale(1.7)"><rect class="tree" x="-1" y="-8" width="2" height="8"/><ellipse class="tree" cx="3" cy="-10" rx="4" ry="2.5" transform="rotate(-24 3 -10)"/></g></g>
        <g transform="translate(126 0)"><rect class="stage-box" width="94" height="72" rx="14"/><text x="28" y="88" class="percent">25%</text><g transform="translate(47 54) scale(1.55)"><rect class="tree" x="-1" y="-10" width="2" height="10"/><circle class="tree" cx="0" cy="-15" r="5"/><circle class="tree" cx="-4" cy="-12" r="3.2"/><circle class="tree" cx="4" cy="-12" r="3.2"/></g></g>
        <g transform="translate(252 0)"><rect class="stage-box" width="94" height="72" rx="14"/><text x="28" y="88" class="percent">50%</text><g transform="translate(47 55) scale(1.42)"><rect class="tree" x="-1.2" y="-13" width="2.4" height="13"/><circle class="tree" cx="0" cy="-21" r="7"/><circle class="tree" cx="-6" cy="-16" r="4.5"/><circle class="tree" cx="6" cy="-16" r="4.5"/></g></g>
        <g transform="translate(378 0)"><rect class="stage-box" width="94" height="72" rx="14"/><text x="28" y="88" class="percent">75%</text><g transform="translate(47 56) scale(1.28)"><rect class="tree" x="-1.5" y="-17" width="3" height="17"/><circle class="tree" cx="0" cy="-27" r="9"/><circle class="tree" cx="-8" cy="-20" r="6"/><circle class="tree" cx="8" cy="-20" r="6"/></g></g>
        <g transform="translate(504 0)"><rect class="stage-box" width="94" height="72" rx="14"/><text x="24" y="88" class="percent">100%</text><g transform="translate(47 58) scale(1.12)"><rect class="tree" x="-2" y="-22" width="4" height="22"/><circle class="tree" cx="0" cy="-35" r="11"/><circle class="tree" cx="-10" cy="-26" r="8"/><circle class="tree" cx="10" cy="-26" r="8"/><circle class="tree" cx="0" cy="-24" r="8"/></g></g>
      </g>
    </g>

    <g transform="translate(0 124)">
      <rect class="card" width="1072" height="104" rx="20"/>
      <text x="24" y="38" class="label">B 像素小树</text>
      <text x="24" y="66" class="hint">更游戏化，菜单栏小尺寸非常清楚，但没有那么柔软。</text>
      <g transform="translate(360 16)">
        <g transform="translate(0 0)"><rect class="stage-box" width="94" height="72" rx="14"/><text x="33" y="88" class="percent">0%</text><g class="tree" transform="translate(47 52) scale(2.2)"><rect x="-1" y="-5" width="2" height="5"/><rect x="1" y="-8" width="3" height="3"/><rect x="-2" y="-7" width="3" height="2"/></g></g>
        <g transform="translate(126 0)"><rect class="stage-box" width="94" height="72" rx="14"/><text x="28" y="88" class="percent">25%</text><g class="tree" transform="translate(47 52) scale(1.9)"><rect x="-1" y="-8" width="2" height="8"/><rect x="-4" y="-14" width="8" height="4"/><rect x="-6" y="-10" width="12" height="4"/></g></g>
        <g transform="translate(252 0)"><rect class="stage-box" width="94" height="72" rx="14"/><text x="28" y="88" class="percent">50%</text><g class="tree" transform="translate(47 54) scale(1.65)"><rect x="-2" y="-12" width="4" height="12"/><rect x="-6" y="-22" width="12" height="5"/><rect x="-9" y="-17" width="18" height="5"/><rect x="-6" y="-12" width="12" height="4"/></g></g>
        <g transform="translate(378 0)"><rect class="stage-box" width="94" height="72" rx="14"/><text x="28" y="88" class="percent">75%</text><g class="tree" transform="translate(47 56) scale(1.42)"><rect x="-2" y="-17" width="4" height="17"/><rect x="-7" y="-29" width="14" height="6"/><rect x="-11" y="-23" width="22" height="6"/><rect x="-8" y="-17" width="16" height="5"/></g></g>
        <g transform="translate(504 0)"><rect class="stage-box" width="94" height="72" rx="14"/><text x="24" y="88" class="percent">100%</text><g class="tree" transform="translate(47 58) scale(1.25)"><rect x="-3" y="-22" width="6" height="22"/><rect x="-8" y="-38" width="16" height="7"/><rect x="-14" y="-31" width="28" height="7"/><rect x="-11" y="-24" width="22" height="7"/><rect x="-6" y="-17" width="12" height="5"/></g></g>
      </g>
    </g>

    <g transform="translate(0 248)">
      <rect class="card" width="1072" height="104" rx="20"/>
      <text x="24" y="38" class="label">C 小盆栽</text>
      <text x="24" y="66" class="hint">更像桌面陪伴物，阶段感强，适合贴纸番茄钟。</text>
      <g transform="translate(360 16)">
        <g transform="translate(0 0)"><rect class="stage-box" width="94" height="72" rx="14"/><text x="33" y="88" class="percent">0%</text><g transform="translate(47 56) scale(1.6)"><path class="tree" d="M-6 0h12l-2 5h-8z"/><rect class="tree" x="-1" y="-7" width="2" height="7"/><ellipse class="tree" cx="3" cy="-9" rx="4" ry="2.3" transform="rotate(-25 3 -9)"/></g></g>
        <g transform="translate(126 0)"><rect class="stage-box" width="94" height="72" rx="14"/><text x="28" y="88" class="percent">25%</text><g transform="translate(47 56) scale(1.5)"><path class="tree" d="M-7 0h14l-2.4 5h-9.2z"/><rect class="tree" x="-1" y="-11" width="2" height="11"/><circle class="tree" cx="-3" cy="-12" r="4"/><circle class="tree" cx="4" cy="-14" r="4.5"/></g></g>
        <g transform="translate(252 0)"><rect class="stage-box" width="94" height="72" rx="14"/><text x="28" y="88" class="percent">50%</text><g transform="translate(47 57) scale(1.35)"><path class="tree" d="M-8 0h16l-2.6 6h-10.8z"/><rect class="tree" x="-1.3" y="-15" width="2.6" height="15"/><circle class="tree" cx="0" cy="-21" r="6"/><circle class="tree" cx="-6" cy="-16" r="4.4"/><circle class="tree" cx="6" cy="-16" r="4.4"/></g></g>
        <g transform="translate(378 0)"><rect class="stage-box" width="94" height="72" rx="14"/><text x="28" y="88" class="percent">75%</text><g transform="translate(47 58) scale(1.18)"><path class="tree" d="M-10 0h20l-3 7h-14z"/><rect class="tree" x="-1.7" y="-20" width="3.4" height="20"/><circle class="tree" cx="0" cy="-29" r="8"/><circle class="tree" cx="-8" cy="-22" r="6"/><circle class="tree" cx="8" cy="-22" r="6"/></g></g>
        <g transform="translate(504 0)"><rect class="stage-box" width="94" height="72" rx="14"/><text x="24" y="88" class="percent">100%</text><g transform="translate(47 59) scale(1.03)"><path class="tree" d="M-12 0h24l-4 8h-16z"/><rect class="tree" x="-2" y="-25" width="4" height="25"/><circle class="tree" cx="0" cy="-39" r="10"/><circle class="tree" cx="-10" cy="-30" r="8"/><circle class="tree" cx="10" cy="-30" r="8"/><circle class="tree" cx="0" cy="-28" r="8"/></g></g>
      </g>
    </g>

    <g transform="translate(0 372)">
      <rect class="card" width="1072" height="104" rx="20"/>
      <text x="24" y="38" class="label">D 松树剪影</text>
      <text x="24" y="66" class="hint">最像“从树苗到参天树”，轮廓利落，菜单栏识别强。</text>
      <g transform="translate(360 16)">
        <g transform="translate(0 0)"><rect class="stage-box" width="94" height="72" rx="14"/><text x="33" y="88" class="percent">0%</text><g transform="translate(47 55) scale(1.55)"><path class="tree" d="M0-15l5 8h-3l4 6h-12l4-6h-3z"/><rect class="tree" x="-1" y="-2" width="2" height="4"/></g></g>
        <g transform="translate(126 0)"><rect class="stage-box" width="94" height="72" rx="14"/><text x="28" y="88" class="percent">25%</text><g transform="translate(47 56) scale(1.38)"><path class="tree" d="M0-22l7 9h-4l6 7h-5l5 6h-18l5-6h-5l6-7h-4z"/><rect class="tree" x="-1.2" y="-3" width="2.4" height="5"/></g></g>
        <g transform="translate(252 0)"><rect class="stage-box" width="94" height="72" rx="14"/><text x="28" y="88" class="percent">50%</text><g transform="translate(47 57) scale(1.22)"><path class="tree" d="M0-30l9 10h-5l7 8h-5l8 9h-28l8-9h-5l7-8h-5z"/><rect class="tree" x="-1.5" y="-5" width="3" height="7"/></g></g>
        <g transform="translate(378 0)"><rect class="stage-box" width="94" height="72" rx="14"/><text x="28" y="88" class="percent">75%</text><g transform="translate(47 58) scale(1.08)"><path class="tree" d="M0-39l10 11h-5l8 9h-6l9 10h-32l9-10h-6l8-9h-5z"/><rect class="tree" x="-2" y="-8" width="4" height="10"/></g></g>
        <g transform="translate(504 0)"><rect class="stage-box" width="94" height="72" rx="14"/><text x="24" y="88" class="percent">100%</text><g transform="translate(47 60) scale(.96)"><path class="tree" d="M0-50l12 13h-6l10 11h-7l11 12h-40l11-12h-7l10-11h-6z"/><rect class="tree" x="-2.4" y="-13" width="4.8" height="15"/></g></g>
      </g>
    </g>

    <g transform="translate(0 496)">
      <rect class="card" width="1072" height="104" rx="20"/>
      <text x="24" y="38" class="label">E 手账印章</text>
      <text x="24" y="66" class="hint">像盖章贴纸，亲和力强；小尺寸比 A 更有装饰感。</text>
      <g transform="translate(360 16)">
        <g transform="translate(0 0)"><rect class="stage-box" width="94" height="72" rx="14"/><text x="33" y="88" class="percent">0%</text><g transform="translate(47 53) scale(1.65)"><path class="ghost" stroke-width="2" d="M-7 2c4-3 10-3 14 0"/><rect class="tree" x="-1" y="-7" width="2" height="7"/><path class="tree" d="M1-10c4-3 7-1 8 2-4 2-7 1-8-2z"/></g></g>
        <g transform="translate(126 0)"><rect class="stage-box" width="94" height="72" rx="14"/><text x="28" y="88" class="percent">25%</text><g transform="translate(47 54) scale(1.48)"><path class="ghost" stroke-width="2" d="M-9 2c5-4 13-4 18 0"/><rect class="tree" x="-1" y="-12" width="2" height="12"/><path class="tree" d="M-2-15c-5-2-7 1-8 4 4 2 7 0 8-4zM2-17c5-3 9 0 10 4-5 2-9 0-10-4z"/></g></g>
        <g transform="translate(252 0)"><rect class="stage-box" width="94" height="72" rx="14"/><text x="28" y="88" class="percent">50%</text><g transform="translate(47 55) scale(1.32)"><path class="ghost" stroke-width="2" d="M-11 2c6-5 16-5 22 0"/><rect class="tree" x="-1.4" y="-17" width="2.8" height="17"/><circle class="tree" cx="-5" cy="-20" r="5"/><circle class="tree" cx="5" cy="-22" r="6"/><circle class="tree" cx="0" cy="-27" r="5"/></g></g>
        <g transform="translate(378 0)"><rect class="stage-box" width="94" height="72" rx="14"/><text x="28" y="88" class="percent">75%</text><g transform="translate(47 57) scale(1.15)"><path class="ghost" stroke-width="2" d="M-13 2c8-5 18-5 26 0"/><rect class="tree" x="-1.8" y="-22" width="3.6" height="22"/><circle class="tree" cx="-8" cy="-26" r="7"/><circle class="tree" cx="8" cy="-27" r="7"/><circle class="tree" cx="0" cy="-35" r="8"/></g></g>
        <g transform="translate(504 0)"><rect class="stage-box" width="94" height="72" rx="14"/><text x="24" y="88" class="percent">100%</text><g transform="translate(47 59) scale(1.02)"><path class="ghost" stroke-width="2" d="M-15 2c9-6 21-6 30 0"/><rect class="tree" x="-2" y="-28" width="4" height="28"/><circle class="tree" cx="-10" cy="-32" r="8"/><circle class="tree" cx="10" cy="-33" r="8"/><circle class="tree" cx="0" cy="-43" r="10"/><circle class="tree" cx="0" cy="-30" r="8"/></g></g>
      </g>
    </g>
  </g>
</svg>
